<?xml version="1.0" encoding="UTF-8"?>
<svg width="150px" height="150px" viewBox="0 0 150 150" version="1.1" xmlns="http://www.w3.org/2000/svg" xmlns:xlink="http://www.w3.org/1999/xlink">
    <!-- Generator: Sketch 53.2 (72643) - https://sketchapp.com -->
    <title>logo/gradient-thick</title>
    <desc>Created with Sketch.</desc>
    <defs>
        <linearGradient x1="24.8266637%" y1="23.2752766%" x2="74.0416128%" y2="79.1447638%" id="linearGradient-1">
            <stop stop-color="#47C1E2" offset="0%"></stop>
            <stop stop-color="#8959EA" offset="100%"></stop>
        </linearGradient>
    </defs>
    <g id="logos" stroke="none" stroke-width="1" fill="none" fill-rule="evenodd">
        <g id="Thick" transform="translate(-138.000000, -116.000000)" fill="url(#linearGradient-1)" fill-rule="nonzero">
            <g id="logo/gradient-thick" transform="translate(138.000000, 116.000000)">
                <path d="M75,150 C33.5786438,150 0,116.421356 0,75 C0,33.5786438 33.5786438,0 75,0 C116.421356,0 150,33.5786438 150,75 C150,116.421356 116.421356,150 75,150 Z M75,125 C102.614237,125 125,102.614237 125,75 C125,47.3857625 102.614237,25 75,25 C47.3857625,25 25,47.3857625 25,75 C25,102.614237 47.3857625,125 75,125 Z"></path>
            </g>
        </g>
    </g>
</svg>