<?xml version="1.0" encoding="UTF-8"?>
<svg width="463px" height="150px" viewBox="0 0 463 150" version="1.1" xmlns="http://www.w3.org/2000/svg" xmlns:xlink="http://www.w3.org/1999/xlink">
    <!-- Generator: Sketch 52.4 (67378) - http://www.bohemiancoding.com/sketch -->
    <title>logo/gradient-text</title>
    <desc>Created with Sketch.</desc>
    <defs>
        <linearGradient x1="24.8266637%" y1="23.2752766%" x2="74.0416128%" y2="79.1447638%" id="linearGradient-1">
            <stop stop-color="#47C1E2" offset="0%"></stop>
            <stop stop-color="#8959EA" offset="100%"></stop>
        </linearGradient>
    </defs>
    <g id="logos" stroke="none" stroke-width="1" fill="none" fill-rule="evenodd">
        <g id="Colour-on-White" transform="translate(-138.000000, -116.000000)">
            <g id="logo/gradient-text" transform="translate(138.000000, 116.000000)">
                <path d="M75,150 C33.5786438,150 0,116.421356 0,75 C0,33.5786438 33.5786438,0 75,0 C116.421356,0 150,33.5786438 150,75 C150,116.421356 116.421356,150 75,150 Z M75.25,131.5 C106.316017,131.5 131.5,106.316017 131.5,75.25 C131.5,44.1839828 106.316017,19 75.25,19 C44.1839828,19 19,44.1839828 19,75.25 C19,106.316017 44.1839828,131.5 75.25,131.5 Z" id="Combined-Shape" fill="url(#linearGradient-1)" fill-rule="nonzero"></path>
                <text id="Orbit" font-family="Cabin-Bold, Cabin" font-size="120" font-weight="bold" fill="#02101C">
                    <tspan x="197" y="118">Orbit</tspan>
                </text>
            </g>
        </g>
    </g>
</svg>