<?xml version="1.0" encoding="UTF-8"?>
<svg width="464px" height="150px" viewBox="0 0 464 150" version="1.1" xmlns="http://www.w3.org/2000/svg" xmlns:xlink="http://www.w3.org/1999/xlink">
    <!-- Generator: Sketch 52.6 (67491) - http://www.bohemiancoding.com/sketch -->
    <title>logo/gradient-text</title>
    <desc>Created with Sketch.</desc>
    <defs>
        <linearGradient x1="24.8266637%" y1="23.2752766%" x2="74.0416128%" y2="79.1447638%" id="linearGradient-1">
            <stop stop-color="#47C1E2" offset="0%"></stop>
            <stop stop-color="#8959EA" offset="100%"></stop>
        </linearGradient>
    </defs>
    <g id="logos" stroke="none" stroke-width="1" fill="none" fill-rule="evenodd">
        <g id="Colour-on-White" transform="translate(-138.000000, -116.000000)">
            <g id="logo/gradient-text" transform="translate(138.000000, 116.000000)">
                <path d="M75,150 C33.5786438,150 0,116.421356 0,75 C0,33.5786438 33.5786438,0 75,0 C116.421356,0 150,33.5786438 150,75 C150,116.421356 116.421356,150 75,150 Z M75.25,131.5 C106.316017,131.5 131.5,106.316017 131.5,75.25 C131.5,44.1839828 106.316017,19 75.25,19 C44.1839828,19 19,44.1839828 19,75.25 C19,106.316017 44.1839828,131.5 75.25,131.5 Z" id="logo/gradient" fill="url(#linearGradient-1)" fill-rule="nonzero"></path>
                <path d="M242,122 C233.965177,122 226.762351,120.166685 220.391304,116.5 C214.020258,112.833315 209.029004,107.675857 205.417391,101.027473 C201.805779,94.3790876 200,86.7033402 200,78 C200,69.2966598 201.805779,61.6209124 205.417391,54.9725275 C209.029004,48.3241426 214.020258,43.166685 220.391304,39.5 C226.762351,35.833315 233.965177,34 242,34 C250.034823,34 257.237649,35.833315 263.608696,39.5 C269.979742,43.166685 274.970996,48.3241426 278.582609,54.9725275 C282.194221,61.6209124 284,69.2966598 284,78 C284,86.7033402 282.194221,94.3790876 278.582609,101.027473 C274.970996,107.675857 269.979742,112.833315 263.608696,116.5 C257.237649,120.166685 250.034823,122 242,122 Z M241.5,107 C249.718051,107 256.02249,104.341693 260.413507,99.025 C264.804524,93.7083067 267,86.7000435 267,78 C267,69.2999565 264.804524,62.2916933 260.413507,56.975 C256.02249,51.6583068 249.718051,49 241.5,49 C233.281949,49 226.97751,51.6583068 222.586493,56.975 C218.195476,62.2916933 216,69.2999565 216,78 C216,86.7000435 218.195476,93.7083067 222.586493,99.025 C226.97751,104.341693 233.281949,107 241.5,107 Z M294,59.2156863 L308.177778,59.2156863 L308.544444,65.6588235 C310.337046,63.6326696 312.638875,61.8496809 315.45,60.3098039 C318.261125,58.7699269 321.214799,58 324.311111,58 C325.288894,58 326.185181,58.0810449 327,58.2431373 L325.9,73.0745098 C324.351844,72.669279 322.60001,72.4666667 320.644444,72.4666667 C318.118506,72.4666667 315.796307,73.0542425 313.677778,74.2294118 C311.559249,75.404581 310.051856,76.8431287 309.155556,78.545098 L309.155556,120 L294,120 L294,59.2156863 Z M365.685185,58.2947368 C371.431442,58.2947368 376.368292,59.7070034 380.495885,62.5315789 C384.623477,65.3561545 387.739358,69.149099 389.843621,73.9105263 C391.947884,78.6719536 393,83.9175152 393,89.6473684 C393,95.3772216 391.947884,100.622783 389.843621,105.384211 C387.739358,110.145638 384.623477,113.938582 380.495885,116.763158 C376.368292,119.587733 371.431442,121 365.685185,121 C359.291463,121 353.504827,119.26493 348.325103,115.794737 L348.082305,119.789474 L334,119.789474 L334,29 L349.053498,29 L349.053498,63.7421053 C353.990422,60.1105082 359.534263,58.2947368 365.685185,58.2947368 Z M363.041494,109 C367.453687,109 370.883114,107.26541 373.329876,103.796178 C375.776637,100.326947 377,95.7282664 377,90 C377,84.2717336 375.776637,79.6730534 373.329876,76.2038217 C370.883114,72.7345899 367.453687,71 363.041494,71 C357.987527,71 354.217163,72.6942506 351.73029,76.0828025 C349.243418,79.4713545 348,84.1103739 348,90 C348,95.8896261 349.243418,100.528645 351.73029,103.917197 C354.217163,107.305749 357.987527,109 363.041494,109 Z M403,35 L418,35 L418,50 L403,50 L403,35 Z M403,59 L418,59 L418,120 L403,120 L403,59 Z M451.868852,121 C446.531121,121 442.487445,119.438931 439.737705,116.316746 C436.987964,113.19456 435.613115,109.44394 435.613115,105.064771 L435.613115,71.3696682 L427,71.3696682 L428.334426,58.9620853 L435.613115,58.9620853 L435.613115,45.5813586 L450.655738,44 L450.655738,58.9620853 L464,58.9620853 L464,71.3696682 L450.655738,71.3696682 L450.655738,98.8609795 C450.655738,102.104808 450.837703,104.355181 451.201639,105.612164 C451.565576,106.869148 452.333874,107.680093 453.506557,108.045024 C454.679241,108.409954 456.80217,108.592417 459.87541,108.592417 L464,108.592417 L462.665574,121 L451.868852,121 Z" id="Orbit" fill="#02101C"></path>
            </g>
        </g>
    </g>
</svg>