<?xml version="1.0" encoding="UTF-8"?>
<svg width="262px" height="368px" viewBox="0 0 262 368" version="1.1" xmlns="http://www.w3.org/2000/svg" xmlns:xlink="http://www.w3.org/1999/xlink">
    <!-- Generator: Sketch 52.4 (67378) - http://www.bohemiancoding.com/sketch -->
    <title>logo/gradient-text-vertical</title>
    <desc>Created with Sketch.</desc>
    <defs>
        <linearGradient x1="24.8266637%" y1="23.2752766%" x2="74.0416128%" y2="79.1447638%" id="linearGradient-1">
            <stop stop-color="#47C1E2" offset="0%"></stop>
            <stop stop-color="#8959EA" offset="100%"></stop>
        </linearGradient>
    </defs>
    <g id="logos" stroke="none" stroke-width="1" fill="none" fill-rule="evenodd">
        <g id="Colour-on-White" transform="translate(-241.000000, -69.000000)">
            <g id="logo/gradient-text-vertical" transform="translate(241.000000, 69.000000)">
                <path d="M131,210 C73.0101013,210 26,162.989899 26,105 C26,47.0101013 73.0101013,0 131,0 C188.989899,0 236,47.0101013 236,105 C236,162.989899 188.989899,210 131,210 Z M131,184 C174.630495,184 210,148.630495 210,105 C210,61.3695048 174.630495,26 131,26 C87.3695048,26 52,61.3695048 52,105 C52,148.630495 87.3695048,184 131,184 Z" id="Combined-Shape" fill="url(#linearGradient-1)" fill-rule="nonzero"></path>
                <path d="M41.4,367.68 C33.4799604,367.68 26.3800314,365.860018 20.1,362.22 C13.8199686,358.579982 8.9000178,353.460033 5.34,346.86 C1.7799822,340.259967 0,332.640043 0,324 C0,315.359957 1.7799822,307.740033 5.34,301.14 C8.9000178,294.539967 13.8199686,289.420018 20.1,285.78 C26.3800314,282.139982 33.4799604,280.32 41.4,280.32 C49.3200396,280.32 56.4199686,282.139982 62.7,285.78 C68.9800314,289.420018 73.8999822,294.539967 77.46,301.14 C81.0200178,307.740033 82.8,315.359957 82.8,324 C82.8,332.640043 81.0200178,340.259967 77.46,346.86 C73.8999822,353.460033 68.9800314,358.579982 62.7,362.22 C56.4199686,365.860018 49.3200396,367.68 41.4,367.68 Z M41.4,352.8 C49.5600408,352.8 55.8199782,350.160026 60.18,344.88 C64.5400218,339.599974 66.72,332.640043 66.72,324 C66.72,315.359957 64.5400218,308.400026 60.18,303.12 C55.8199782,297.839974 49.5600408,295.2 41.4,295.2 C33.2399592,295.2 26.9800218,297.839974 22.62,303.12 C18.2599782,308.400026 16.08,315.359957 16.08,324 C16.08,332.640043 18.2599782,339.599974 22.62,344.88 C26.9800218,350.160026 33.2399592,352.8 41.4,352.8 Z M93.12,306 L107.04,306 L107.4,312.36 C109.160009,310.35999 111.419986,308.600008 114.18,307.08 C116.940014,305.559992 119.839985,304.8 122.88,304.8 C123.840005,304.8 124.719996,304.879999 125.52,305.04 L124.44,319.68 C122.919992,319.279998 121.20001,319.08 119.28,319.08 C116.799988,319.08 114.52001,319.659994 112.44,320.82 C110.35999,321.980006 108.880004,323.399992 108,325.08 L108,366 L93.12,366 L93.12,306 Z M163.92,305.04 C169.600028,305.04 174.47998,306.439986 178.56,309.24 C182.64002,312.040014 185.71999,315.799976 187.8,320.52 C189.88001,325.240024 190.92,330.439972 190.92,336.12 C190.92,341.800028 189.88001,346.999976 187.8,351.72 C185.71999,356.440024 182.64002,360.199986 178.56,363 C174.47998,365.800014 169.600028,367.2 163.92,367.2 C157.599968,367.2 151.880026,365.480017 146.76,362.04 L146.52,366 L132.6,366 L132.6,276 L147.48,276 L147.48,310.44 C152.360024,306.839982 157.83997,305.04 163.92,305.04 Z M161.76,354.96 C166.160022,354.96 169.579988,353.240017 172.02,349.8 C174.460012,346.359983 175.68,341.800028 175.68,336.12 C175.68,330.439972 174.460012,325.880017 172.02,322.44 C169.579988,318.999983 166.160022,317.28 161.76,317.28 C156.719975,317.28 152.960012,318.959983 150.48,322.32 C147.999988,325.680017 146.76,330.279971 146.76,336.12 C146.76,341.960029 147.999988,346.559983 150.48,349.92 C152.960012,353.280017 156.719975,354.96 161.76,354.96 Z M201.24,282 L216.12,282 L216.12,296.88 L201.24,296.88 L201.24,282 Z M201.24,306 L216.12,306 L216.12,366 L201.24,366 L201.24,306 Z M249.6,367.2 C244.319974,367.2 240.320014,365.660015 237.6,362.58 C234.879986,359.499985 233.52,355.800022 233.52,351.48 L233.52,318.24 L225,318.24 L226.32,306 L233.52,306 L233.52,292.8 L248.4,291.24 L248.4,306 L261.6,306 L261.6,318.24 L248.4,318.24 L248.4,345.36 C248.4,348.560016 248.579998,350.779994 248.94,352.02 C249.300002,353.260006 250.059994,354.059998 251.22,354.42 C252.380006,354.780002 254.479985,354.96 257.52,354.96 L261.6,354.96 L260.28,367.2 L249.6,367.2 Z" id="Orbit" fill="#02101C"></path>
            </g>
        </g>
    </g>
</svg>