<?xml version="1.0" encoding="UTF-8"?>
<svg width="101px" height="101px" viewBox="0 0 101 101" version="1.1" xmlns="http://www.w3.org/2000/svg" xmlns:xlink="http://www.w3.org/1999/xlink">
    <!-- Generator: Sketch 54.1 (76490) - https://sketchapp.com -->
    <title>icon/exit</title>
    <desc>Created with Sketch.</desc>
    <g id="icons" stroke="none" stroke-width="1" fill="none" fill-rule="evenodd">
        <g id="icons-copy" transform="translate(-184.000000, -34.000000)" fill="#000000">
            <path d="M234.447138,66.4010968 L263.919302,36.9289322 C267.824545,33.0236893 274.156195,33.0236893 278.061438,36.9289322 L281.965343,40.8328373 C285.870586,44.7380802 285.870586,51.06973 281.965343,54.9749729 L252.493178,84.4471375 L281.965343,113.919302 C285.870586,117.824545 285.870586,124.156195 281.965343,128.061438 L278.061438,131.965343 C274.156195,135.870586 267.824545,135.870586 263.919302,131.965343 L234.447138,102.493178 L204.974973,131.965343 C201.06973,135.870586 194.73808,135.870586 190.832837,131.965343 L186.928932,128.061438 C183.023689,124.156195 183.023689,117.824545 186.928932,113.919302 L216.401097,84.4471375 L186.928932,54.9749729 C183.023689,51.06973 183.023689,44.7380802 186.928932,40.8328373 L190.832837,36.9289322 C194.73808,33.0236893 201.06973,33.0236893 204.974973,36.9289322 L234.447138,66.4010968 Z" id="icon/exit"></path>
        </g>
    </g>
</svg>