<?xml version="1.0" encoding="UTF-8"?>
<svg width="90px" height="90px" viewBox="0 0 90 90" version="1.1" xmlns="http://www.w3.org/2000/svg" xmlns:xlink="http://www.w3.org/1999/xlink">
    <!-- Generator: Sketch 54.1 (76490) - https://sketchapp.com -->
    <title>icon/file-add-white</title>
    <desc>Created with Sketch.</desc>
    <g id="icons" stroke="none" stroke-width="1" fill="none" fill-rule="evenodd">
        <g transform="translate(-27.000000, -28.000000)" fill="#FFFFFF" fill-rule="nonzero" id="icon/file-add-white">
            <g transform="translate(27.000000, 28.000000)">
                <path d="M23.547,21.688 L23.547,3.605 L2.382,25.869 L19.363,25.869 C21.67,25.869 23.547,23.994 23.547,21.688 Z" id="Path"></path>
                <path d="M14.649,72.008 L14.649,66.999 L47.113,66.999 C47.511,63.812 48.535,60.82 50.056,58.145 L14.649,58.145 L14.649,53.135 L53.842,53.135 C58.19,48.72 64.225,45.973 70.891,45.951 C70.891,28.637 70.891,10.532 70.891,8.444 C70.891,4.334 66.877,0.97 61.975,0.97 L28.556,0.97 L28.556,21.686 C28.556,26.754 24.433,30.877 19.364,30.877 L0,30.877 L0,78.76 C0,83.665 4.011,87.677 8.917,87.677 L9.658,87.677 C13.356,87.677 41.207,87.677 54.693,87.677 C50.383,83.706 47.527,78.186 47.013,72.008 L14.649,72.008 Z M14.649,39.272 L56.238,39.272 L56.238,44.282 L14.649,44.282 L14.649,39.272 Z" id="Shape"></path>
                <path d="M70.964,50.959 C60.452,50.959 51.93,59.482 51.93,69.994 C51.93,80.505 60.452,89.027 70.964,89.027 C81.477,89.027 90,80.505 90,69.994 C90,59.482 81.477,50.959 70.964,50.959 Z M79.848,72.799 L73.77,72.799 L73.77,78.878 C73.77,80.428 72.514,81.684 70.964,81.684 C69.415,81.684 68.159,80.428 68.159,78.878 L68.159,72.799 L62.082,72.799 C60.532,72.799 59.277,71.544 59.277,69.994 C59.277,68.443 60.532,67.187 62.082,67.187 L68.159,67.187 L68.159,61.109 C68.159,59.56 69.415,58.304 70.964,58.304 C72.514,58.304 73.77,59.56 73.77,61.109 L73.77,67.187 L79.848,67.187 C81.399,67.187 82.653,68.443 82.653,69.994 C82.652,71.544 81.396,72.799 79.848,72.799 Z" id="Shape"></path>
            </g>
        </g>
    </g>
</svg>