<?xml version="1.0" encoding="UTF-8"?>
<svg width="55px" height="52px" viewBox="0 0 55 52" version="1.1" xmlns="http://www.w3.org/2000/svg" xmlns:xlink="http://www.w3.org/1999/xlink">
    <!-- Generator: Sketch 54.1 (76490) - https://sketchapp.com -->
    <title>icon/no-cert</title>
    <desc>Created with Sketch.</desc>
    <g id="icons" stroke="none" stroke-width="1" fill="none" fill-rule="evenodd">
        <g id="icons-copy" transform="translate(-360.000000, -286.000000)">
            <g id="icon/no-cert" transform="translate(360.000000, 286.000000)">
                <rect id="Rectangle-Copy-9" stroke="#EE5253" stroke-width="7" x="3.5" y="3.5" width="48" height="30" rx="8"></rect>
                <path d="M27.942409,42.0163071 L22.548077,47.6711735 C22.4915909,47.7303877 22.4337166,47.7882621 22.3745023,47.8447482 C20.293815,49.8295728 16.9980665,49.7518607 15.0132419,47.6711735 C12.995586,45.5560692 12.995586,42.2289488 15.0132419,40.1138445 L19.9945124,34.8919896 L15.0132419,29.6701348 C12.995586,27.5550305 12.995586,24.2279101 15.0132419,22.1128058 C15.0697281,22.0535916 15.1276024,21.9957172 15.1868166,21.9392311 C17.2675039,19.9544065 20.5632524,20.0321186 22.548077,22.1128058 L27.942409,27.7676722 L33.336741,22.1128058 C35.3215656,20.0321186 38.6173141,19.9544065 40.6980013,21.9392311 C40.7572156,21.9957172 40.8150899,22.0535916 40.8715761,22.1128058 C42.889232,24.2279101 42.889232,27.5550305 40.8715761,29.6701348 L35.8903056,34.8919896 L40.8715761,40.1138445 C42.889232,42.2289488 42.889232,45.5560692 40.8715761,47.6711735 C38.8867515,49.7518607 35.5910029,49.8295728 33.5103157,47.8447482 C33.4511014,47.7882621 33.3932271,47.7303877 33.336741,47.6711735 L27.942409,42.0163071 Z" id="Combined-Shape" stroke="#FFFFFF" stroke-width="5" fill="#EE5253"></path>
                <circle id="Oval-Copy" fill="#EE5253" opacity="0.200000003" cx="34" cy="19" r="18"></circle>
            </g>
        </g>
    </g>
</svg>