<?xml version="1.0" encoding="UTF-8"?>
<svg width="96px" height="98px" viewBox="0 0 96 98" version="1.1" xmlns="http://www.w3.org/2000/svg" xmlns:xlink="http://www.w3.org/1999/xlink">
    <!-- Generator: Sketch 54.1 (76490) - https://sketchapp.com -->
    <title>icon/search</title>
    <desc>Created with Sketch.</desc>
    <g id="icons" stroke="none" stroke-width="1" fill="none" fill-rule="evenodd" fill-opacity="0.5">
        <g id="icons-copy" transform="translate(-328.000000, -34.000000)" fill="#000000" fill-rule="nonzero">
            <path d="M365.5,109 C386.210678,109 403,92.2106781 403,71.5 C403,50.7893219 386.210678,34 365.5,34 C344.789322,34 328,50.7893219 328,71.5 C328,92.2106781 344.789322,109 365.5,109 Z M365.5,92 C354.178163,92 345,82.8218374 345,71.5 C345,60.1781626 354.178163,51 365.5,51 C376.821837,51 386,60.1781626 386,71.5 C386,82.8218374 376.821837,92 365.5,92 Z M379.489592,100.010408 L408.766176,129.286991 C412.085633,132.606448 417.467535,132.606448 420.786991,129.286991 C424.106448,125.967535 424.106448,120.585633 420.786991,117.266176 L391.510408,87.9895924 C388.190951,84.6701359 382.809049,84.6701359 379.489592,87.9895924 C376.170136,91.3090488 376.170136,96.6909512 379.489592,100.010408 Z" id="icon/search"></path>
        </g>
    </g>
</svg>