<?xml version="1.0" encoding="UTF-8"?>
<svg width="79px" height="95px" viewBox="0 0 79 95" version="1.1" xmlns="http://www.w3.org/2000/svg" xmlns:xlink="http://www.w3.org/1999/xlink">
    <!-- Generator: Sketch 54.1 (76490) - https://sketchapp.com -->
    <title>icon/trash-white</title>
    <desc>Created with Sketch.</desc>
    <g id="icons" stroke="none" stroke-width="1" fill="none" fill-rule="evenodd">
        <g transform="translate(-165.000000, -25.000000)" fill="#FFFFFF" fill-rule="nonzero" id="icon/trash-white">
            <g transform="translate(165.000000, 25.000000)">
                <path d="M11.6,87.6 C11.9,91.8 15.4,95 19.6,95 L59,95 C63.2,95 66.7,91.8 67,87.6 L71.8,29.9 L6.8,29.9 L11.6,87.6 Z M53,43.4 C53.1,41.9 54.4,40.8 55.9,40.9 C57.4,41 58.5,42.3 58.4,43.8 L55.9,81.7 C55.8,83.2 54.5,84.3 53,84.2 C51.5,84.1 50.4,82.8 50.5,81.3 L53,43.4 Z M36.6,43.5 C36.6,42 37.8,40.8 39.3,40.8 C40.8,40.8 42,42 42,43.5 L42,81.4 C42,82.9 40.8,84.1 39.3,84.1 C37.8,84.1 36.6,82.9 36.6,81.4 L36.6,43.5 Z M22.8,40.8 L22.8,40.8 C24.3,40.7 25.6,41.8 25.7,43.3 L28.2,81.2 C28.3,82.7 27.2,84 25.7,84.1 C24.2,84.2 22.9,83.1 22.8,81.6 L20.3,43.7 C20.1,42.2 21.3,40.9 22.8,40.8 Z" id="Shape"></path>
                <path d="M69.9,13.7 L54.9,13.7 C54,6 47.5,0 39.6,0 L38.9,0 C31,0 24.5,6 23.7,13.7 L8.7,13.7 C3.9,13.7 -4.97379915e-14,17.6 -4.97379915e-14,22.4 C-4.97379915e-14,23.6 0.9,24.5 2.1,24.5 L76.5,24.5 C77.7,24.5 78.6,23.6 78.6,22.4 C78.6,17.6 74.7,13.7 69.9,13.7 Z M39,8.1 L39.7,8.1 C43.1,8.1 45.9,10.5 46.7,13.7 L32,13.7 C32.7,10.5 35.6,8.1 39,8.1 Z" id="Shape"></path>
            </g>
        </g>
    </g>
</svg>