<?xml version="1.0" encoding="UTF-8"?>
<svg width="369px" height="162px" viewBox="0 0 369 162" version="1.1" xmlns="http://www.w3.org/2000/svg" xmlns:xlink="http://www.w3.org/1999/xlink">
    <!-- Generator: Sketch 52.6 (67491) - http://www.bohemiancoding.com/sketch -->
    <title>maintained-by-recoded</title>
    <desc>Created with Sketch.</desc>
    <g id="Logos" stroke="none" stroke-width="1" fill="none" fill-rule="evenodd">
        <g id="badges" transform="translate(-108.000000, -258.000000)">
            <g id="maintained-by-recoded" transform="translate(108.000000, 258.000000)">
                <rect id="shadow" fill="#2F334B" fill-rule="nonzero" opacity="0.400000006" x="22" y="110" width="325" height="52" rx="16"></rect>
                <rect id="background" fill="#212435" fill-rule="nonzero" x="0" y="0" width="369" height="152" rx="16"></rect>
                <g id="logo" transform="translate(44.000000, 44.000000)" fill-rule="nonzero">
                    <rect id="top-line" fill="#FF6B81" x="0" y="0" width="64" height="16" rx="8"></rect>
                    <rect id="middle-line" fill="#FDCB6E" x="0" y="24" width="52" height="16" rx="8"></rect>
                    <rect id="bottom-line" fill="#7BED9F" x="24" y="48" width="40" height="16" rx="8"></rect>
                    <rect id="dot" fill="#81ECEC" x="0" y="48" width="16" height="16" rx="8"></rect>
                </g>
                <g id="text" transform="translate(140.000000, 40.000000)">
                    <path d="M0,37 L12.8955224,37 C16.6567352,37 19.620325,37.8916577 21.7863806,39.675 C23.9524362,41.4583422 25.0354478,44.0999825 25.0354478,47.6 C25.0354478,50.0333455 24.5149306,52.0249922 23.4738806,53.575 C22.4328306,55.1250078 20.9552335,56.366662 19.0410448,57.3 L27,72 L19.7966418,72 L12.9962687,59 L6.44776119,59 L6.44776119,72 L0,72 L0,37 Z M10.8,53 C15.600024,53 18,51.150461 18,47.4513274 C18,45.6666577 17.4553246,44.3119515 16.3659574,43.3871681 C15.2765903,42.4623848 13.5063952,42 11.0553191,42 L6,42 L6,53 L10.8,53 Z M41.55,72 C38.6499855,72 36.1750103,71.4060548 34.125,70.2181467 C32.0749897,69.0302386 30.5416718,67.4408079 29.525,65.4498069 C28.5083283,63.458806 28,61.2419685 28,58.7992278 C28,56.4568737 28.4833285,54.315325 29.45,52.3745174 C30.4166715,50.4337097 31.8166575,48.8861062 33.65,47.7316602 C35.4833425,46.5772143 37.666654,46 40.2,46 C42.533345,46 44.5083252,46.4851946 46.125,47.4555985 C47.7416748,48.4260023 48.9583293,49.7310085 49.775,51.3706564 C50.5916707,53.0103042 51,54.8506976 51,56.8918919 C51,57.8957579 50.866668,59.0334557 50.6,60.3050193 L34.45,60.3050193 C34.783335,62.5135246 35.649993,64.1615132 37.05,65.2490347 C38.450007,66.3365563 40.1333235,66.8803089 42.1,66.8803089 C44.8000135,66.8803089 47.2999885,66.1943441 49.6,64.8223938 L49.9,70.0926641 C48.833328,70.6615215 47.5916738,71.1216199 46.175,71.472973 C44.7583262,71.8243261 43.216675,72 41.55,72 Z M45,56 C45,54.6868621 44.6369673,53.5252576 43.9108911,52.5151515 C43.1848149,51.5050455 42.0627139,51 40.5445545,51 C39.026395,51 37.8052851,51.4545409 36.8811881,52.3636364 C35.9570911,53.2727318 35.3300347,54.4848409 35,56 L45,56 Z M67.0348259,72 C64.28191,72 61.9187495,71.4250057 59.9452736,70.275 C57.9717978,69.1249943 56.4875672,67.5666765 55.4925373,65.6 C54.4975075,63.6333235 54,61.450012 54,59.05 C54,56.6166545 54.4975075,54.4083433 55.4925373,52.425 C56.4875672,50.4416567 57.9800896,48.8750057 59.9701493,47.725 C61.960209,46.5749943 64.3814119,46 67.2338308,46 C69.7877408,46 72.0099408,46.533328 73.9004975,47.6 L73.4029851,52.6 C71.6119313,51.666662 69.7545701,51.2 67.8308458,51.2 C65.4759418,51.2 63.6351642,51.9166595 62.3084577,53.35 C60.9817512,54.7833405 60.318408,56.6833215 60.318408,59.05 C60.318408,61.316678 60.9983348,63.1916593 62.358209,64.675 C63.7180831,66.1583408 65.5256935,66.9 67.7810945,66.9 C69.6716512,66.9 71.5621796,66.3500055 73.4527363,65.25 L74,70.5 C73.1044731,70.966669 72.0514157,71.333332 70.840796,71.6 C69.6301764,71.866668 68.3615323,72 67.0348259,72 Z M90,72 C87.335914,72 85.0259501,71.4166725 83.0700389,70.25 C81.1141277,69.0833275 79.6134942,67.5166765 78.5680934,65.55 C77.5226926,63.5833235 77,61.4166785 77,59.05 C77,56.6833215 77.5226926,54.50001 78.5680934,52.5 C79.6134942,50.49999 81.1141277,48.9166725 83.0700389,47.75 C85.0259501,46.5833275 87.335914,46 90,46 C92.664086,46 94.9740499,46.5833275 96.9299611,47.75 C98.8858723,48.9166725 100.386506,50.49999 101.431907,52.5 C102.477307,54.50001 103,56.6833215 103,59.05 C103,61.4166785 102.477307,63.5833235 101.431907,65.55 C100.386506,67.5166765 98.8858723,69.0833275 96.9299611,70.25 C94.9740499,71.4166725 92.664086,72 90,72 Z M89.5,67 C91.5333435,67 93.1249943,66.2742689 94.275,64.8227848 C95.4250058,63.3713008 96,61.4472694 96,59.0506329 C96,56.620241 95.4250058,54.6708934 94.275,53.2025316 C93.1249943,51.7341699 91.5333435,51 89.5,51 C87.4666565,51 85.8750058,51.7341699 84.725,53.2025316 C83.5749943,54.6708934 83,56.620241 83,59.0506329 C83,61.4472694 83.5749943,63.3713008 84.725,64.8227848 C85.8750058,66.2742689 87.4666565,67 89.5,67 Z M130,34 L130,71.5 L123.981481,71.5 L123.878601,69.9 C122.884083,70.6000035 121.846713,71.1249983 120.766461,71.475 C119.686209,71.8250017 118.408787,72 116.934156,72 C114.430715,72 112.278816,71.4166725 110.478395,70.25 C108.677975,69.0833275 107.314819,67.5166765 106.388889,65.55 C105.462958,63.5833235 105,61.4166785 105,59.05 C105,56.6833215 105.462958,54.5166765 106.388889,52.55 C107.314819,50.5833235 108.677975,49.0166725 110.478395,47.85 C112.278816,46.6833275 114.430715,46.1 116.934156,46.1 C119.437598,46.1 121.666657,46.76666 123.621399,48.1 L123.621399,34 L130,34 Z M118.124481,67 C120.082997,67 121.551862,66.2866313 122.53112,64.8598726 C123.510378,63.4331139 124,61.4798425 124,59 C124,56.5201575 123.510378,54.5668861 122.53112,53.1401274 C121.551862,51.7133687 120.082997,51 118.124481,51 C116.19916,51 114.697101,51.7303536 113.618257,53.1910828 C112.539414,54.651812 112,56.5880983 112,59 C112,61.4119017 112.539414,63.348188 113.618257,64.8089172 C114.697101,66.2696464 116.19916,67 118.124481,67 Z M148.55,72 C145.649985,72 143.17501,71.4060548 141.125,70.2181467 C139.07499,69.0302386 137.541672,67.4408079 136.525,65.4498069 C135.508328,63.458806 135,61.2419685 135,58.7992278 C135,56.4568737 135.483328,54.315325 136.45,52.3745174 C137.416672,50.4337097 138.816658,48.8861062 140.65,47.7316602 C142.483342,46.5772143 144.666654,46 147.2,46 C149.533345,46 151.508325,46.4851946 153.125,47.4555985 C154.741675,48.4260023 155.958329,49.7310085 156.775,51.3706564 C157.591671,53.0103042 158,54.8506976 158,56.8918919 C158,57.8957579 157.866668,59.0334557 157.6,60.3050193 L141.45,60.3050193 C141.783335,62.5135246 142.649993,64.1615132 144.05,65.2490347 C145.450007,66.3365563 147.133323,66.8803089 149.1,66.8803089 C151.800013,66.8803089 154.299988,66.1943441 156.6,64.8223938 L156.9,70.0926641 C155.833328,70.6615215 154.591674,71.1216199 153.175,71.472973 C151.758326,71.8243261 150.216675,72 148.55,72 Z M151,56 C151,54.6868621 150.636967,53.5252576 149.910891,52.5151515 C149.184815,51.5050455 148.062714,51 146.544554,51 C145.026395,51 143.805285,51.4545409 142.881188,52.3636364 C141.957091,53.2727318 141.330035,54.4848409 141,56 L151,56 Z M185,34 L185,71.5 L178.981481,71.5 L178.878601,69.9 C177.884083,70.6000035 176.846713,71.1249983 175.766461,71.475 C174.686209,71.8250017 173.408787,72 171.934156,72 C169.430715,72 167.278816,71.4166725 165.478395,70.25 C163.677975,69.0833275 162.314819,67.5166765 161.388889,65.55 C160.462958,63.5833235 160,61.4166785 160,59.05 C160,56.6833215 160.462958,54.5166765 161.388889,52.55 C162.314819,50.5833235 163.677975,49.0166725 165.478395,47.85 C167.278816,46.6833275 169.430715,46.1 171.934156,46.1 C174.437598,46.1 176.666657,46.76666 178.621399,48.1 L178.621399,34 L185,34 Z M173.124481,67 C175.082997,67 176.551862,66.2866313 177.53112,64.8598726 C178.510378,63.4331139 179,61.4798425 179,59 C179,56.5201575 178.510378,54.5668861 177.53112,53.1401274 C176.551862,51.7133687 175.082997,51 173.124481,51 C171.19916,51 169.697101,51.7303536 168.618257,53.1910828 C167.539414,54.651812 167,56.5880983 167,59 C167,61.4119017 167.539414,63.348188 168.618257,64.8089172 C169.697101,66.2696464 171.19916,67 173.124481,67 Z" id="Recoded" fill="#FFFFFF"></path>
                    <path d="M17.248,21 L15.4,6.188 L10.08,16.352 L4.648,6.16 L2.8,21 L0,21 L2.632,1.4 L4.9,1.4 L10.052,11.116 L15.148,1.4 L17.444,1.4 L20.048,21 L17.248,21 Z M27.124,21.28 C25.8546603,21.28 24.8326705,20.9066704 24.058,20.16 C23.2833295,19.4133296 22.896,18.4613391 22.896,17.304 C22.896,15.5679913 23.7173251,14.3266704 25.36,13.58 C27.0026749,12.8333296 28.9159891,12.4413335 31.1,12.404 C31.1,11.1719938 30.8620024,10.3366689 30.386,9.898 C29.9099976,9.45933114 29.1493386,9.24 28.104,9.24 C27.5253304,9.24 26.9466696,9.32866578 26.368,9.506 C25.7893304,9.68333422 25.1640034,10.005331 24.492,10.472 L24.128,8.428 C24.6880028,7.99866452 25.3786626,7.65333464 26.2,7.392 C27.0213374,7.13066536 27.8799955,7 28.776,7 C29.9520059,7 30.8899965,7.20533128 31.59,7.616 C32.2900035,8.02666872 32.8033317,8.70799524 33.13,9.66 C33.4566683,10.6120048 33.62,11.9186584 33.62,13.58 L33.62,16.38 C33.62,17.1266704 33.6526663,17.6913314 33.718,18.074 C33.7833337,18.4566686 33.9279989,18.7506656 34.152,18.956 C34.3760011,19.1613344 34.721331,19.264 35.188,19.264 L35.44,19.264 L35.048,21.28 L34.852,21.28 C34.0679961,21.28 33.4520022,21.2053341 33.004,21.056 C32.5559978,20.9066659 32.2153345,20.6920014 31.982,20.412 C31.7486655,20.1319986 31.5293344,19.7493358 31.324,19.264 C30.1666609,20.6080067 28.7666749,21.28 27.124,21.28 Z M27.6,19.264 C28.2720034,19.264 28.9206635,19.0960017 29.546,18.76 C30.1713365,18.4239983 30.6893313,17.9760028 31.1,17.416 L31.1,14.14 C29.0839899,14.214667 27.6420043,14.4806644 26.774,14.938 C25.9059957,15.3953356 25.472,16.1373282 25.472,17.164 C25.472,17.8733369 25.6633314,18.4006649 26.046,18.746 C26.4286686,19.0913351 26.9466634,19.264 27.6,19.264 Z M38.372,1.4 L40.892,1.4 L40.892,4.2 L38.372,4.2 L38.372,1.4 Z M38.372,7.28 L40.892,7.28 L40.892,21 L38.372,21 L38.372,7.28 Z M52.084,7 C55.817352,7 57.684,9.1466452 57.684,13.44 L57.684,21 L55.164,21 L55.164,13.44 C55.164,11.965326 54.8886694,10.89667 54.338,10.234 C53.7873306,9.57133002 52.8680064,9.24 51.58,9.24 C50.7586626,9.24 50.0120034,9.38933184 49.34,9.688 C48.6679966,9.98666816 48.1640017,10.4346637 47.828,11.032 L47.828,21 L45.308,21 L45.308,7.28 L47.268,7.28 L47.548,8.736 C48.2760036,8.0826634 49.008663,7.63000126 49.746,7.378 C50.483337,7.12599874 51.2626626,7 52.084,7 Z M66.468,21.28 C65.2546606,21.28 64.3540029,20.9626698 63.766,20.328 C63.1779971,19.6933302 62.884,18.9186712 62.884,18.004 L62.884,9.24 L60.532,9.24 L60.756,7.28 L62.884,7.28 L62.884,3.892 L65.404,3.64 L65.404,7.28 L69.016,7.28 L69.016,9.24 L65.404,9.24 L65.404,16.464 C65.404,17.4160048 65.4599994,18.0693316 65.572,18.424 C65.6840006,18.7786684 65.9219982,19.0073328 66.286,19.11 C66.6500018,19.2126672 67.3173285,19.264 68.288,19.264 L68.932,19.264 L68.736,21.28 L66.468,21.28 Z M75.364,21.28 C74.0946603,21.28 73.0726705,20.9066704 72.298,20.16 C71.5233295,19.4133296 71.136,18.4613391 71.136,17.304 C71.136,15.5679913 71.9573251,14.3266704 73.6,13.58 C75.2426749,12.8333296 77.1559891,12.4413335 79.34,12.404 C79.34,11.1719938 79.1020024,10.3366689 78.626,9.898 C78.1499976,9.45933114 77.3893386,9.24 76.344,9.24 C75.7653304,9.24 75.1866696,9.32866578 74.608,9.506 C74.0293304,9.68333422 73.4040034,10.005331 72.732,10.472 L72.368,8.428 C72.9280028,7.99866452 73.6186626,7.65333464 74.44,7.392 C75.2613374,7.13066536 76.1199955,7 77.016,7 C78.1920059,7 79.1299965,7.20533128 79.83,7.616 C80.5300035,8.02666872 81.0433317,8.70799524 81.37,9.66 C81.6966683,10.6120048 81.86,11.9186584 81.86,13.58 L81.86,16.38 C81.86,17.1266704 81.8926663,17.6913314 81.958,18.074 C82.0233337,18.4566686 82.1679989,18.7506656 82.392,18.956 C82.6160011,19.1613344 82.961331,19.264 83.428,19.264 L83.68,19.264 L83.288,21.28 L83.092,21.28 C82.3079961,21.28 81.6920022,21.2053341 81.244,21.056 C80.7959978,20.9066659 80.4553345,20.6920014 80.222,20.412 C79.9886655,20.1319986 79.7693344,19.7493358 79.564,19.264 C78.4066609,20.6080067 77.0066749,21.28 75.364,21.28 Z M75.84,19.264 C76.5120034,19.264 77.1606635,19.0960017 77.786,18.76 C78.4113365,18.4239983 78.9293313,17.9760028 79.34,17.416 L79.34,14.14 C77.3239899,14.214667 75.8820043,14.4806644 75.014,14.938 C74.1459957,15.3953356 73.712,16.1373282 73.712,17.164 C73.712,17.8733369 73.9033314,18.4006649 74.286,18.746 C74.6686686,19.0913351 75.1866634,19.264 75.84,19.264 Z M86.612,1.4 L89.132,1.4 L89.132,4.2 L86.612,4.2 L86.612,1.4 Z M86.612,7.28 L89.132,7.28 L89.132,21 L86.612,21 L86.612,7.28 Z M100.324,7 C104.057352,7 105.924,9.1466452 105.924,13.44 L105.924,21 L103.404,21 L103.404,13.44 C103.404,11.965326 103.128669,10.89667 102.578,10.234 C102.027331,9.57133002 101.108006,9.24 99.82,9.24 C98.9986626,9.24 98.2520034,9.38933184 97.58,9.688 C96.9079966,9.98666816 96.4040017,10.4346637 96.068,11.032 L96.068,21 L93.548,21 L93.548,7.28 L95.508,7.28 L95.788,8.736 C96.5160036,8.0826634 97.248663,7.63000126 97.986,7.378 C98.723337,7.12599874 99.5026626,7 100.324,7 Z M116.78,21.28 C115.211992,21.28 113.872672,20.9580032 112.762,20.314 C111.651328,19.6699968 110.80667,18.7973388 110.228,17.696 C109.64933,16.5946612 109.36,15.3720067 109.36,14.028 C109.36,12.7399936 109.625997,11.5593387 110.158,10.486 C110.690003,9.4126613 111.464662,8.56333646 112.482,7.938 C113.499338,7.31266354 114.69866,7 116.08,7 C117.834675,7 119.257995,7.5133282 120.35,8.54 C121.442005,9.5666718 121.988,10.9853243 121.988,12.796 C121.988,13.262669 121.950667,13.7106645 121.876,14.14 L111.936,14.14 C112.104001,15.9133422 112.645329,17.1733296 113.56,17.92 C114.474671,18.6666704 115.650659,19.04 117.088,19.04 C118.525341,19.04 119.841327,18.769336 121.036,18.228 L121.372,20.216 C119.785325,20.9253369 118.254674,21.28 116.78,21.28 Z M119.384,12.404 C119.384,11.4146617 119.104003,10.6400028 118.544,10.08 C117.983997,9.5199972 117.144006,9.24 116.024,9.24 C114.941328,9.24 114.092003,9.50599734 113.476,10.038 C112.859997,10.5700027 112.421335,11.3586614 112.16,12.404 L119.384,12.404 Z M137.688,0 L137.688,21 L135.448,21 L135.168,19.32 C134.701331,19.9546698 134.09467,20.4399983 133.348,20.776 C132.60133,21.1120017 131.808004,21.28 130.968,21.28 C129.810661,21.28 128.756005,20.9626698 127.804,20.328 C126.851995,19.6933302 126.100669,18.8346721 125.55,17.752 C124.999331,16.6693279 124.724,15.4746732 124.724,14.168 C124.724,12.8986603 124.980664,11.7133388 125.494,10.612 C126.007336,9.51066116 126.739995,8.6333366 127.692,7.98 C128.644005,7.3266634 129.735994,7 130.968,7 C131.789337,7 132.563996,7.14933184 133.292,7.448 C134.020004,7.74666816 134.645331,8.20399692 135.168,8.82 L135.168,0 L137.688,0 Z M131.416,19.04 C132.088003,19.04 132.731997,18.8673351 133.348,18.522 C133.964003,18.1766649 134.467998,17.6400036 134.86,16.912 C135.252002,16.1839964 135.448,15.2693388 135.448,14.168 C135.448,13.1413282 135.252002,12.2546704 134.86,11.508 C134.467998,10.7613296 133.959336,10.1966686 133.334,9.814 C132.708664,9.43133142 132.069337,9.24 131.416,9.24 C130.14666,9.24 129.143337,9.70199538 128.406,10.626 C127.668663,11.5500046 127.3,12.7306595 127.3,14.168 C127.3,15.5493402 127.67333,16.706662 128.42,17.64 C129.16667,18.573338 130.165327,19.04 131.416,19.04 Z M156.124,7 C157.356006,7 158.443329,7.3266634 159.386,7.98 C160.328671,8.6333366 161.051997,9.50599454 161.556,10.598 C162.060003,11.6900055 162.312,12.8706603 162.312,14.14 C162.312,15.4466732 162.036669,16.6459945 161.486,17.738 C160.935331,18.8300055 160.188671,19.6933302 159.246,20.328 C158.303329,20.9626698 157.262672,21.28 156.124,21.28 C155.283996,21.28 154.472004,21.1073351 153.688,20.762 C152.903996,20.4166649 152.297335,19.9360031 151.868,19.32 L151.588,21 L149.348,21 L149.348,0 L151.868,0 L151.868,8.876 C152.372003,8.29733044 153.001996,7.84000168 153.758,7.504 C154.514004,7.16799832 155.302663,7 156.124,7 Z M155.816,19.04 C156.992006,19.04 157.93933,18.5686714 158.658,17.626 C159.37667,16.6833286 159.736,15.5213402 159.736,14.14 C159.736,12.7213262 159.37667,11.5500046 158.658,10.626 C157.93933,9.70199538 156.992006,9.24 155.816,9.24 C154.658661,9.24 153.688004,9.66466242 152.904,10.514 C152.119996,11.3633376 151.728,12.5719922 151.728,14.14 C151.728,15.7640081 152.115329,16.9866626 152.89,17.808 C153.664671,18.6293374 154.639994,19.04 155.816,19.04 Z M170.116,20.384 L164.404,7.28 L167.204,7.28 L171.488,17.472 L175.352,7.28 L178.152,7.28 L169.752,27.776 L166.952,27.776 L170.116,20.384 Z" id="Maintained-by" fill="#BAC4D7"></path>
                </g>
            </g>
        </g>
    </g>
</svg>