<svg xmlns="http://www.w3.org/2000/svg" xmlns:xlink="http://www.w3.org/1999/xlink" viewBox="0 0 181.58 254.9"><defs><linearGradient id="a" x1="25.83" y1="45.05" x2="155.75" y2="-29.96" gradientTransform="matrix(1, 0, 0, -1, 0, 82.55)" gradientUnits="userSpaceOnUse"><stop offset="0.15" stop-color="#47c1e2"/><stop offset="0.85" stop-color="#8b59ea"/></linearGradient></defs><title>name-logo</title><path d="M90.79,0a75,75,0,1,0,75,75A75,75,0,0,0,90.79,0Zm0,131.25A56.25,56.25,0,1,1,147,75,56.25,56.25,0,0,1,90.79,131.25Z" style="fill:url(#a)"/><path d="M14,251.12A26.78,26.78,0,0,1,3.74,240.4a36.48,36.48,0,0,1,0-32.18A26.69,26.69,0,0,1,14,197.51a29.32,29.32,0,0,1,15-3.79,29.32,29.32,0,0,1,15,3.79,26.69,26.69,0,0,1,10.29,10.71,36.48,36.48,0,0,1,0,32.18A26.78,26.78,0,0,1,44,251.12a29.41,29.41,0,0,1-15,3.78A29.41,29.41,0,0,1,14,251.12ZM42.81,239.6q4.83-5.88,4.83-15.29T42.81,209Q38,203.14,29,203.14T15.12,209q-4.86,5.88-4.87,15.29t4.87,15.29Q20,245.5,29,245.49T42.81,239.6Z" style="fill:#02101c"/><path d="M65.46,212H74l.5,5.3a18.66,18.66,0,0,1,5.21-4.46,12.18,12.18,0,0,1,6.13-1.68,11.56,11.56,0,0,1,1.85.17L86.89,221a11.54,11.54,0,0,0-8.41.88A8.31,8.31,0,0,0,75,224.9v28.82H65.46Z" style="fill:#02101c"/><path d="M124.15,214.23a18.75,18.75,0,0,1,6.47,7.85,27.14,27.14,0,0,1-.08,21.73,19,19,0,0,1-6.56,7.85,17.24,17.24,0,0,1-10,2.9,17.71,17.71,0,0,1-12.27-4.37l-.42,3.53H92.68v-63h9.41v25A18,18,0,0,1,114,211.29,17.32,17.32,0,0,1,124.15,214.23Zm-3.78,28.61q2.82-3.83,2.82-10T120.37,223a9,9,0,0,0-7.6-3.79,10,10,0,0,0-8.24,3.62q-2.94,3.62-2.94,10.08t2.94,10.17a10,10,0,0,0,8.24,3.61A9,9,0,0,0,120.37,242.84Z" style="fill:#02101c"/><path d="M140.24,194.9h9.41v9.66h-9.41Zm0,17.14h9.41v41.68h-9.41Z" style="fill:#02101c"/><path d="M165.16,251.45a10.73,10.73,0,0,1-2.82-7.48V219.61H156l.84-7.57h5.46v-9.58l9.41-1V212h9.83v7.57h-9.83v20a20.46,20.46,0,0,0,.42,5.09,2.55,2.55,0,0,0,1.81,1.8,19.4,19.4,0,0,0,5,.42h2.52l-.84,7.65h-7.23C169.79,254.56,167,253.53,165.16,251.45Z" style="fill:#02101c"/></svg>